<?xml version="1.0" encoding="utf-8"?>
<!-- Generator: Adobe Illustrator 24.2.0, SVG Export Plug-In . SVG Version: 6.00 Build 0)  -->
<svg version="1.1" id="Layer_1" xmlns="http://www.w3.org/2000/svg" xmlns:xlink="http://www.w3.org/1999/xlink" x="0px" y="0px"
	 viewBox="0 0 646 140" style="enable-background:new 0 0 646 140;" xml:space="preserve">
<style type="text/css">
	.st0{fill:#004097;}
	.st1{clip-path:url(#SVGID_2_);fill:url(#SVGID_3_);}
</style>
<g>
	<polygon class="st0" points="399.7,45.8 455.1,134.4 416.7,134.4 361.2,45.8 	"/>
	<path class="st0" d="M342.4,89.6c-3.4,19-6.3,38.3-5.5,44.8h-28.5c-0.4-5.1-0.6-9.9-0.4-14.8c-9.9,12.3-22,16.7-36.2,16.7
		c-23.5,0-39.1-13.1-33.8-42.9C243.9,60,267.6,42,303.5,42c14.4,0,35.3,2.5,45.9,6.6l-1,5.9L342.4,89.6z M316.4,65.3
		c-4.9-0.6-9.7-1.1-14.6-1.1c-17.6,0-30.2,8.7-33.6,27.5c-2.7,15,4,20.5,15.6,20.5C294.7,112.2,307.6,105.2,316.4,65.3"/>
	<path class="st0" d="M482.1,45.8l-9.9,55.4c-3.6,21.1,4.2,33.8,30.5,33.8c3,0,6.1,0,9.5-0.4l4-22.8c-2.3,0.4-4.4,0.4-6.3,0.4
		c-7,0-8.5-4.9-7.4-11.6l9.7-54.8H482.1z"/>
	<path class="st0" d="M634.4,89.6c-3.4,19-6.3,38.3-5.5,44.8h-28.5c-0.4-5.1-0.6-9.9-0.4-14.8c-9.9,12.3-22,16.7-36.2,16.7
		c-23.5,0-39.1-13.1-33.8-42.9C535.9,60,559.7,42,595.5,42c14.4,0,35.3,2.5,45.9,6.6l-1,5.9L634.4,89.6z M608.4,65.3
		c-4.9-0.6-9.7-1.1-14.6-1.1c-17.6,0-30.2,8.7-33.6,27.5c-2.7,15,4,20.5,15.6,20.5C586.8,112.2,599.7,105.2,608.4,65.3"/>
	<polygon class="st0" points="206.4,45.8 178,98.6 168.3,45.8 132.6,45.8 156.2,134.4 188.2,134.4 243,45.8 	"/>
	<path class="st0" d="M101.9,1.6H62.6L1.4,134.4h34.9l12-27.9h43.3l6,27.9h34.5L101.9,1.6z M60.7,78.4l14.6-33.1
		c1.6-3.8,3.1-7.8,4.5-11.6c0.2-0.4,0.3-0.8,0.5-1.2l8.4,46H60.7z"/>
	<g>
		<defs>
			<polygon id="SVGID_1_" points="479.5,1.6 345.7,134.4 385.9,134.4 519.8,1.6 			"/>
		</defs>
		<clipPath id="SVGID_2_">
			<use xlink:href="#SVGID_1_"  style="overflow:visible;"/>
		</clipPath>
		
			<linearGradient id="SVGID_3_" gradientUnits="userSpaceOnUse" x1="263.3658" y1="678.8387" x2="265.1879" y2="678.8387" gradientTransform="matrix(-99.6066 99.2992 99.2992 99.6066 -40637.0898 -93805.8594)">
			<stop  offset="0" style="stop-color:#FFF11D"/>
			<stop  offset="7.192662e-03" style="stop-color:#FFEE1B"/>
			<stop  offset="6.258070e-02" style="stop-color:#FDDB0C"/>
			<stop  offset="0.1196" style="stop-color:#FBD003"/>
			<stop  offset="0.1804" style="stop-color:#FBCC00"/>
			<stop  offset="0.4324" style="stop-color:#F0942E"/>
			<stop  offset="0.6816" style="stop-color:#E9652D"/>
			<stop  offset="1" style="stop-color:#E4362C"/>
		</linearGradient>
		<polygon class="st1" points="586.2,68.2 432.5,221.5 279.3,67.8 433,-85.5 		"/>
	</g>
</g>
</svg>
